<svg width="147" height="40" viewBox="0 0 147 40" fill="none" xmlns="http://www.w3.org/2000/svg">
<path d="M58.9922 4.38433C58.9922 5.15515 59.6765 5.80565 60.485 5.80565C61.2934 5.80565 61.9777 5.15515 61.9777 4.38433V0.0639648H62.7185V4.38433C62.7185 5.54996 61.7258 6.51255 60.485 6.51255C59.2629 6.51255 58.2515 5.54996 58.2515 4.38433V0.0639648H58.9922V4.38433Z" fill="#1B1B1B" stroke="#1B1B1B" stroke-width="0.244" stroke-miterlimit="10"/>
<path d="M68.009 5.10251V0.0639648H68.7497V6.44862H68.009L65.0235 1.41008V6.44862H64.2827V0.0639648H65.0235L68.009 5.10251Z" fill="#1B1B1B" stroke="#1B1B1B" stroke-width="0.244" stroke-miterlimit="10"/>
<path d="M71.0244 6.44862H70.2837V0.0639648H71.0244V6.44862Z" fill="#1B1B1B" stroke="#1B1B1B" stroke-width="0.244" stroke-miterlimit="10"/>
<path d="M76.1233 7.51269L75.4954 6.34706C75.2172 6.4561 74.9351 6.5125 74.6381 6.5125C73.4048 6.5125 72.3933 5.56872 72.3933 4.38428V2.12822C72.3933 0.943786 73.4048 0 74.6268 0C75.8677 0 76.8603 0.943786 76.8603 2.12822V4.38428C76.8603 5.01598 76.5633 5.62136 76.0594 6.01617L76.8603 7.51269H76.1233ZM74.6268 0.7069C73.7996 0.7069 73.1341 1.3386 73.1341 2.12822V4.38428C73.1341 5.1551 73.8184 5.8056 74.6268 5.8056C75.4352 5.8056 76.1196 5.1551 76.1196 4.38428V2.12822C76.1233 1.3386 75.4578 0.7069 74.6268 0.7069Z" fill="#1B1B1B" stroke="#1B1B1B" stroke-width="0.244" stroke-miterlimit="10"/>
<path d="M78.9847 5.74172H82.711V6.44862H78.2402V0.0639648H78.981V5.74172H78.9847Z" fill="#1B1B1B" stroke="#1B1B1B" stroke-width="0.244" stroke-miterlimit="10"/>
<path d="M86.1327 0C87.3735 0 88.3662 0.943786 88.3662 2.12822V4.38428C88.3662 5.54992 87.3735 6.5125 86.1327 6.5125C84.9106 6.5125 83.8992 5.54992 83.8992 4.38428V2.12822C83.8954 0.943786 84.9106 0 86.1327 0ZM86.1327 0.7069C85.3055 0.7069 84.6399 1.3386 84.6399 2.12822V4.38428C84.6399 5.1551 85.3243 5.8056 86.1327 5.8056C86.9411 5.8056 87.6254 5.1551 87.6254 4.38428V2.12822C87.6254 1.3386 86.9599 0.7069 86.1327 0.7069Z" fill="#1B1B1B" stroke="#1B1B1B" stroke-width="0.244" stroke-miterlimit="10"/>
<path d="M1.17682 14.3035C2.1582 14.3298 3.11327 14.3599 4.06458 14.3599C4.70755 14.3599 5.32797 14.3035 5.94087 14.3035L13.4799 29.8703L17.6837 21.4063C18.6914 19.3796 19.9548 16.7739 21.049 14.3035C21.7784 14.3298 22.4778 14.3599 23.2073 14.3599C24.0759 14.3599 24.9482 14.3035 25.813 14.3035V15.0254C23.8239 15.0254 23.3201 15.2773 23.3201 17.1348C23.3201 21.2709 23.6547 28.6783 23.7111 30.7878C23.7675 32.5625 24.3842 32.9536 26.738 32.9536V33.6755C25.2264 33.6755 23.7111 33.6191 22.1996 33.6191C20.797 33.6191 19.4246 33.6454 18.0221 33.6755V32.9536C19.0298 32.9799 19.7329 32.9273 20.1804 32.7054C20.7707 32.4009 20.9098 31.6789 20.9098 30.7614L20.7143 17.5785H20.6579L14.2695 30.705C14.074 31.0923 13.54 32.2053 12.9497 33.9237H12.3895C11.6901 32.3708 11.0433 30.9833 10.3966 29.6485C8.49398 25.6815 6.55753 21.9628 4.65491 18.1877H4.59851C4.51203 22.1019 4.34282 28.652 4.34282 29.9831C4.34282 31.3706 4.48195 32.0662 4.93316 32.4798C5.32797 32.8408 5.99727 32.9536 7.20426 32.9536V33.6755C6.08375 33.6755 4.96324 33.6191 3.84273 33.6191C2.55301 33.6191 1.29338 33.6454 0.00366211 33.6755V32.9536C2.18828 32.9536 3.22607 32.258 3.33888 28.7912C3.4216 25.8771 3.6472 21.0754 3.6472 17.5522C3.6472 15.4428 3.16967 15.0555 1.17682 15.0254V14.3035Z" fill="#1B1B1B"/>
<path d="M38.6839 23.324V31.0397C38.6839 32.0399 39.0223 32.5926 39.6916 32.5926C40.0564 32.5926 40.4775 32.4272 40.7294 32.1226L40.9813 32.5926C40.2218 33.2882 39.3269 34.0929 38.2064 34.0929C37.0558 34.0929 36.5256 33.0401 36.4692 32.0399C35.2058 33.1754 33.9462 34.0929 32.1526 34.0929C30.2763 34.0929 29.1257 32.8145 29.1257 31.3743C29.1257 29.1258 30.5546 28.7347 36.4429 26.7118V24.8806C36.4429 23.4631 35.657 22.493 33.7243 22.493C32.3782 22.493 31.5961 23.354 31.5961 24.4633C31.5961 25.2416 30.6147 25.6026 30.0282 25.6026C29.607 25.6026 29.5243 25.2416 29.5243 25.0198C29.5243 23.4932 30.9832 22.8013 32.8595 21.8274C33.8409 21.3273 34.232 20.9927 35.2697 20.9927C36.6647 20.9889 38.6839 21.8801 38.6839 23.324ZM33.3558 32.7844C34.6719 32.7844 35.5442 31.9534 36.4391 31.1751V27.5127C36.3 27.5691 35.627 27.791 34.8148 28.0391C32.8821 28.6483 31.3668 29.4266 31.3668 30.784C31.3668 31.8707 32.2654 32.7844 33.3558 32.7844Z" fill="#1B1B1B"/>
<path d="M51.0509 21.7936L51.2465 24.6249H50.6035C50.2952 22.8501 49.3401 21.88 47.5503 21.88C46.4298 21.88 45.3619 22.5193 45.3619 23.7112C45.3619 26.9599 51.8669 25.9597 51.8669 30.3177C51.8669 32.4535 50.0169 34.0929 47.0991 34.0929C45.9522 34.0929 44.5497 33.7056 43.6247 33.1491L43.3164 29.9567L43.8203 29.8176C44.2677 32.0398 45.5875 33.2017 47.3548 33.2017C48.84 33.2017 49.6259 32.3707 49.6259 31.2314C49.6259 27.9564 43.5157 29.013 43.5157 24.5422C43.5157 22.7937 44.9709 20.9889 47.8586 20.9889C48.7535 20.9889 49.9568 21.2408 51.0509 21.7936Z" fill="#1B1B1B"/>
<path d="M57.7964 18.575V21.4063H61.9739V22.9066H57.7964V30.3441C57.7964 31.7579 58.5522 32.5926 59.5637 32.5926C60.3194 32.5926 60.8797 32.3445 61.5227 31.788L61.9438 32.2053C60.9323 33.2318 59.7028 34.0929 58.2138 34.0929C56.3074 34.0929 55.5516 33.01 55.5516 31.5398V22.9066H53.7017V22.4629C55.578 21.1017 56.3375 20.3535 57.458 18.5787H57.7964V18.575Z" fill="#1B1B1B"/>
<path d="M73.9461 25.4033C73.9461 25.5424 73.9461 25.7079 73.9198 25.847L73.6679 26.0124H65.7904C65.734 26.3734 65.734 26.7644 65.7904 27.5954C65.9596 30.2049 67.6141 32.4234 69.9115 32.4234C71.4795 32.4234 72.6865 31.5623 73.6942 30.5621L74.0852 30.9494C72.5173 33.0589 70.8327 34.0854 68.9 34.0854C64.7527 34.0891 63.5457 30.314 63.5457 28.0128C63.5457 22.602 67.2456 20.9927 69.2084 20.9927C71.7314 20.9889 73.9461 22.6283 73.9461 25.4033ZM70.75 25.125C71.3103 25.125 71.5359 24.9295 71.5359 24.4031C71.5359 23.0683 70.7237 21.8763 69.0693 21.8763C67.4148 21.8763 66.2078 23.0983 65.8732 25.125H70.75Z" fill="#1B1B1B"/>
<path d="M79.9736 21.3235V23.8503H80.03C81.2332 21.9628 82.3011 20.9927 83.6171 20.9927C84.3203 20.9927 85.2152 21.4627 85.2152 22.4629C85.2152 23.2111 84.6812 23.8767 83.8991 23.8767C83.0305 23.8767 83.0005 23.2111 82.0755 23.2111C81.4024 23.2111 79.9999 23.9895 79.9999 25.4897V32.0662C79.9999 32.9799 80.6429 32.9535 81.3723 32.9535H82.914V33.6755C81.5679 33.6492 80.1954 33.6191 78.823 33.6191C77.7852 33.6191 76.7211 33.6492 75.657 33.6755V32.9535H76.5256C77.2813 32.9535 77.7589 32.8708 77.7589 32.0662V24.2376C77.7589 23.433 76.864 23.2374 76.3 22.9855V22.5681C78.4319 21.6808 79.4396 20.9889 79.7217 20.9889C79.9134 20.9927 79.9736 21.128 79.9736 21.3235Z" fill="#1B1B1B"/>
<path d="M91.3742 21.0754V23.0457C93.1415 21.4891 94.4011 20.9927 95.6081 20.9927C98.6914 20.9927 100.767 23.9331 100.767 26.9036C100.767 30.5659 97.8529 34.0929 93.8709 34.0929C93.1152 34.0929 92.0473 33.8711 91.3742 33.5665V38.6163C91.3742 39.1991 91.9082 39.2819 92.5511 39.2819H93.9537V40.0038C92.694 39.9775 91.4569 39.9474 90.2236 39.9474C89.1031 39.9474 88.0089 39.9737 86.8884 40.0038V39.2819H87.8961C89.1294 39.2819 89.1294 38.7291 89.1294 38.229V25.377C89.1294 23.2112 88.4564 23.2676 87.475 22.8502V22.4328C88.0917 22.1583 90.0808 21.2108 90.7839 20.9363C90.9493 20.8536 91.0095 20.8273 91.0621 20.8273C91.2915 20.8235 91.3742 20.9062 91.3742 21.0754ZM91.3742 31.2879C92.0736 32.5362 93.1114 33.2018 94.3748 33.2018C96.9542 33.2018 98.5222 30.6223 98.5222 28.0392C98.5222 25.3732 96.8978 22.8201 93.8672 22.8201C93.0249 22.8201 91.9608 23.2901 91.3705 23.7338V31.2879H91.3742Z" fill="#1B1B1B"/>
<path d="M106.768 21.3236V31.9534C106.768 32.7317 106.994 32.9536 108.084 32.9536H108.644V33.6755C107.607 33.6755 106.569 33.6191 105.531 33.6191C104.58 33.6191 103.598 33.6492 102.643 33.6755V32.9536H103.177C103.959 32.9536 104.523 32.9273 104.523 32.0925V24.5422C104.523 23.4067 104.215 23.1548 103.064 22.5719V22.1282C104.971 21.5454 105.7 21.2973 106.009 21.1581C106.287 21.019 106.373 20.9927 106.569 20.9927C106.712 20.9927 106.768 21.1845 106.768 21.3236ZM107.02 15.33C107.02 16.0782 106.403 16.7175 105.648 16.7175C104.948 16.7175 104.275 16.0782 104.275 15.33C104.275 14.6381 104.948 13.9989 105.648 13.9989C106.403 13.9989 107.02 14.608 107.02 15.33Z" fill="#1B1B1B"/>
<path d="M120.789 25.4034C120.789 25.5425 120.789 25.7079 120.763 25.847L120.511 26.0125H112.638C112.581 26.3735 112.581 26.7645 112.638 27.5955C112.807 30.205 114.457 32.4235 116.759 32.4235C118.327 32.4235 119.534 31.5624 120.541 30.5622L120.932 30.9495C119.364 33.0589 117.68 34.0854 115.747 34.0854C111.6 34.0854 110.393 30.3103 110.393 28.0053C110.393 22.5946 114.093 20.9852 116.052 20.9852C118.575 20.989 120.789 22.6284 120.789 25.4034ZM117.593 25.1251C118.154 25.1251 118.379 24.9296 118.379 24.4032C118.379 23.0683 117.567 21.8764 115.913 21.8764C114.258 21.8764 113.051 23.0984 112.717 25.1251H117.593Z" fill="#1B1B1B"/>
<path d="M133.653 22.9065C133.653 23.5458 133.258 24.1286 132.589 24.1286C131.382 24.1286 131.495 21.88 128.832 21.88C126.482 21.88 125.163 24.4595 125.163 26.6516C125.163 29.7048 127.182 32.0361 130.069 32.0361C131.498 32.0361 132.427 31.536 133.491 30.7313L133.969 31.2013C132.596 32.7843 130.716 34.0891 128.502 34.0891C125.531 34.0891 122.925 31.2314 122.925 28.3437C122.925 24.3467 125.809 20.9889 129.874 20.9889C131.773 20.9927 133.653 21.6281 133.653 22.9065Z" fill="#1B1B1B"/>
<path d="M146.305 25.4034C146.305 25.5425 146.305 25.7079 146.279 25.847L146.027 26.0125H138.146C138.09 26.3735 138.09 26.7645 138.146 27.5955C138.315 30.205 139.97 32.4235 142.267 32.4235C143.839 32.4235 145.042 31.5624 146.05 30.5622L146.445 30.9495C144.877 33.0589 143.192 34.0854 141.259 34.0854C137.112 34.0854 135.905 30.3103 135.905 28.0053C135.905 22.5946 139.605 20.9852 141.568 20.9852C144.091 20.989 146.305 22.6284 146.305 25.4034ZM143.109 25.1251C143.67 25.1251 143.895 24.9296 143.895 24.4032C143.895 23.0683 143.083 21.8764 141.429 21.8764C139.774 21.8764 138.571 23.0984 138.236 25.1251H143.109Z" fill="#1B1B1B"/>
</svg>
